<?xml version="1.0" standalone="no"?>
<!DOCTYPE svg PUBLIC "-//W3C//DTD SVG 20010904//EN"
 "http://www.w3.org/TR/2001/REC-SVG-20010904/DTD/svg10.dtd">
<svg version="1.0" xmlns="http://www.w3.org/2000/svg"
 width="225.000000pt" height="225.000000pt" viewBox="0 0 225.000000 225.000000"
 preserveAspectRatio="xMidYMid meet">
<metadata>
Created by potrace 1.16, written by Peter Selinger 2001-2019
</metadata>
<g transform="translate(0.000000,225.000000) scale(0.100000,-0.100000)"
fill="#000000" stroke="none">
<path d="M1535 2231 c-27 -13 -202 -182 -537 -517 -550 -552 -535 -535 -509
-632 11 -43 51 -86 509 -546 501 -502 539 -535 606 -536 46 0 113 37 138 78
26 43 29 113 5 157 -8 17 -209 223 -446 460 l-431 430 439 440 c386 386 441
445 451 482 19 75 -14 149 -84 182 -52 26 -89 26 -141 2z"/>
</g>
</svg>
