<?xml version="1.0" encoding="UTF-8"?>
<svg xmlns="http://www.w3.org/2000/svg" xmlns:xlink="http://www.w3.org/1999/xlink" width="50pt" height="39pt" viewBox="0 0 50 39" version="1.1">
<g id="surface1">
<path style=" stroke:none;fill-rule:nonzero;fill:rgb(12.941176%,58.823529%,95.294118%);fill-opacity:1;" d="M 46.875 0.03125 C 46.125 0.113281 45.332031 0.335938 44.316406 0.746094 C 42.574219 1.449219 40.5625 2.582031 37.988281 4.324219 C 34.371094 6.769531 29.558594 10.550781 24.449219 14.957031 C 21.867188 17.191406 19.023438 19.742188 16.976562 21.671875 C 16.636719 21.996094 16.355469 22.257812 16.351562 22.257812 C 16.347656 22.257812 16.089844 22.152344 15.78125 22.023438 C 14.785156 21.605469 12.363281 20.644531 11.570312 20.351562 C 8.253906 19.136719 5.941406 18.5 4.101562 18.300781 C 3.578125 18.246094 2.664062 18.261719 2.230469 18.332031 C 1.355469 18.480469 0.648438 18.894531 0.296875 19.472656 C 0.09375 19.796875 0.0273438 20.042969 0.0234375 20.4375 C 0.0195312 20.765625 0.0273438 20.789062 0.148438 20.988281 C 0.261719 21.171875 0.363281 21.257812 1.066406 21.777344 C 2.777344 23.046875 4.65625 24.59375 6.039062 25.871094 C 9.132812 28.738281 12.386719 32.617188 16.113281 37.882812 C 16.769531 38.808594 17.027344 38.988281 17.695312 38.988281 C 17.953125 38.988281 18.070312 38.972656 18.210938 38.921875 C 18.652344 38.761719 18.828125 38.578125 19.140625 37.949219 C 19.667969 36.886719 20.695312 34.945312 21.347656 33.792969 C 26.367188 24.871094 32.363281 17.308594 39.527344 10.863281 C 41.558594 9.039062 43.320312 7.597656 46.640625 5.054688 C 49.238281 3.0625 49.726562 2.601562 49.9375 1.925781 C 50.253906 0.90625 49.207031 0.0546875 47.578125 0.015625 C 47.332031 0.0078125 47.015625 0.015625 46.875 0.03125 Z M 46.875 0.03125 "/>
</g>
</svg>
